<mxfile host="65bd71144e">
    <diagram id="b9O8rZIneWjr-P9MC5kQ" name="DKP">
        <mxGraphModel dx="2581" dy="618" grid="1" gridSize="10" guides="1" tooltips="1" connect="1" arrows="1" fold="1" page="1" pageScale="1" pageWidth="850" pageHeight="1100" math="0" shadow="0">
            <root>
                <mxCell id="0"/>
                <mxCell id="1" parent="0"/>
                <mxCell id="KZ__pssaalwZhVSVFkkO-1" value="" style="rounded=1;whiteSpace=wrap;html=1;fillColor=#FFFFFF;fontColor=#0066ff;strokeColor=#0066ff;arcSize=4;strokeWidth=2;fontFamily=JetBrains Mono;fontSource=https%3A%2F%2Ffonts.googleapis.com%2Fcss%3Ffamily%3DJetBrains%2BMono;dashed=1;" parent="1" vertex="1">
                    <mxGeometry x="40" y="120" width="520" height="280" as="geometry"/>
                </mxCell>
                <mxCell id="KZ__pssaalwZhVSVFkkO-2" value="Namespace" style="text;html=1;strokeColor=none;fillColor=none;align=left;verticalAlign=middle;whiteSpace=wrap;rounded=0;fontColor=#0066ff;strokeWidth=2;fontFamily=JetBrains Mono;fontSource=https%3A%2F%2Ffonts.googleapis.com%2Fcss%3Ffamily%3DJetBrains%2BMono;fontSize=14;" parent="1" vertex="1">
                    <mxGeometry x="60" y="130" width="60" height="20" as="geometry"/>
                </mxCell>
                <mxCell id="HVMJYCdbByCac82Y2Law-2" style="edgeStyle=orthogonalEdgeStyle;html=1;exitX=0.5;exitY=1;exitDx=0;exitDy=0;curved=1;strokeWidth=2;strokeColor=#000000;endArrow=none;endFill=0;" parent="1" source="KZ__pssaalwZhVSVFkkO-3" target="HVMJYCdbByCac82Y2Law-1" edge="1">
                    <mxGeometry relative="1" as="geometry"/>
                </mxCell>
                <mxCell id="KZ__pssaalwZhVSVFkkO-3" value="VM" style="rounded=1;whiteSpace=wrap;html=1;fillColor=#0066ff;fontColor=#FFFFFF;strokeColor=#0066ff;strokeWidth=2;fontFamily=JetBrains Mono;fontSource=https%3A%2F%2Ffonts.googleapis.com%2Fcss%3Ffamily%3DJetBrains%2BMono;fontStyle=1" parent="1" vertex="1">
                    <mxGeometry x="150" y="240" width="80" height="40" as="geometry"/>
                </mxCell>
                <mxCell id="zBuhsIEzXWVct3BQoB1n-1" style="edgeStyle=orthogonalEdgeStyle;curved=1;html=1;exitX=0.5;exitY=1;exitDx=0;exitDy=0;strokeColor=#000000;strokeWidth=2;endArrow=none;endFill=0;" parent="1" source="KZ__pssaalwZhVSVFkkO-10" target="HVMJYCdbByCac82Y2Law-1" edge="1">
                    <mxGeometry relative="1" as="geometry"/>
                </mxCell>
                <mxCell id="KZ__pssaalwZhVSVFkkO-10" value="VM" style="rounded=1;whiteSpace=wrap;html=1;fillColor=#0066ff;fontColor=#FFFFFF;strokeColor=#0066ff;strokeWidth=2;fontFamily=JetBrains Mono;fontSource=https%3A%2F%2Ffonts.googleapis.com%2Fcss%3Ffamily%3DJetBrains%2BMono;fontStyle=1" parent="1" vertex="1">
                    <mxGeometry x="260" y="240" width="80" height="40" as="geometry"/>
                </mxCell>
                <mxCell id="zBuhsIEzXWVct3BQoB1n-2" style="edgeStyle=orthogonalEdgeStyle;curved=1;html=1;exitX=0.5;exitY=1;exitDx=0;exitDy=0;strokeColor=#000000;strokeWidth=2;endArrow=none;endFill=0;" parent="1" source="KZ__pssaalwZhVSVFkkO-18" edge="1">
                    <mxGeometry relative="1" as="geometry">
                        <mxPoint x="300" y="320" as="targetPoint"/>
                    </mxGeometry>
                </mxCell>
                <mxCell id="KZ__pssaalwZhVSVFkkO-18" value="VM" style="rounded=1;whiteSpace=wrap;html=1;fillColor=#0066ff;fontColor=#FFFFFF;strokeColor=#0066ff;strokeWidth=2;fontFamily=JetBrains Mono;fontSource=https%3A%2F%2Ffonts.googleapis.com%2Fcss%3Ffamily%3DJetBrains%2BMono;fontStyle=1" parent="1" vertex="1">
                    <mxGeometry x="370" y="240" width="80" height="40" as="geometry"/>
                </mxCell>
                <mxCell id="KZ__pssaalwZhVSVFkkO-19" value="DKP" style="rounded=1;whiteSpace=wrap;html=1;fillColor=#0066ff;fontColor=#FFFFFF;strokeColor=#0066ff;strokeWidth=2;fontFamily=JetBrains Mono;fontSource=https%3A%2F%2Ffonts.googleapis.com%2Fcss%3Ffamily%3DJetBrains%2BMono;fontStyle=1" parent="1" vertex="1">
                    <mxGeometry x="150" y="180" width="300" height="50" as="geometry"/>
                </mxCell>
                <mxCell id="HVMJYCdbByCac82Y2Law-1" value="" style="html=1;verticalLabelPosition=bottom;align=center;labelBackgroundColor=#ffffff;verticalAlign=top;strokeWidth=2;strokeColor=#0080F0;shadow=0;dashed=0;shape=mxgraph.ios7.icons.cloud;fontSize=14;fillColor=#0066FF;" parent="1" vertex="1">
                    <mxGeometry x="250" y="320" width="100" height="50" as="geometry"/>
                </mxCell>
            </root>
        </mxGraphModel>
    </diagram>
</mxfile>
